<svg xmlns="http://www.w3.org/2000/svg" width="96" height="96" viewBox="0 0 24 24"><path fill="currentColor" fill-rule="evenodd" stroke="#000" stroke-width=".75" d="M2 12c0-3.771 0-5.657 1.172-6.828S6.229 4 10 4h1.5c3.771 0 5.657 0 6.828 1.172.944.943 1.127 2.348 1.163 4.828H20c.943 0 1.414 0 1.707.293S22 11.057 22 12s0 1.414-.293 1.707S20.943 14 20 14h-.509c-.036 2.48-.22 3.885-1.163 4.828C17.157 20 15.271 20 11.5 20H10c-3.771 0-5.657 0-6.828-1.172S2 15.771 2 12m4.636-3.656a.75.75 0 0 1 1.02.292s.088.185.118.259c.06.147.132.356.202.631.142.551.274 1.364.274 2.474s-.132 1.923-.274 2.474c-.047.184-.32.89-.32.89-.48.878-1.796.159-1.317-.719l.005-.01.038-.087a4 4 0 0 0 .142-.447c.108-.424.226-1.111.226-2.101s-.118-1.677-.226-2.101a4 4 0 0 0-.18-.534l-.005-.01a.75.75 0 0 1 .297-1.01m4.52.292c-.48-.878-1.796-.159-1.317.719l.005.01.038.087c.035.087.087.235.142.447.108.424.226 1.111.226 2.101s-.118 1.677-.226 2.101a4 4 0 0 1-.18.534l-.005.01c-.48.878.837 1.598 1.317.72 0 0 .25-.617.321-.892.14-.551.273-1.364.273-2.474s-.132-1.923-.274-2.474a5 5 0 0 0-.202-.631 3 3 0 0 0-.102-.228l-.01-.018-.003-.007Zm2.38-.358a.75.75 0 0 1 1.02.292s.089.185.119.259c.06.147.132.356.202.63.142.552.274 1.365.274 2.475s-.132 1.923-.274 2.474c-.047.183-.32.89-.32.89-.48.878-1.797.159-1.317-.72l.005-.01.038-.086q.084-.22.142-.447c.108-.424.226-1.111.226-2.101s-.118-1.677-.226-2.101a4 4 0 0 0-.18-.534l-.005-.01a.75.75 0 0 1 .297-1.01" clip-rule="evenodd"/></svg>