<svg xmlns="http://www.w3.org/2000/svg" width="96" height="96" viewBox="0 0 24 24"><path fill="currentColor" fill-rule="evenodd" stroke="#000" stroke-width=".75" d="M3.172 5.172C2 6.343 2 8.229 2 12s0 5.657 1.172 6.828S6.229 20 10 20h1.5c3.771 0 5.657 0 6.828-1.172.944-.943 1.127-2.348 1.163-4.828H20c.943 0 1.414 0 1.707-.293S22 12.943 22 12s0-1.414-.293-1.707S20.943 10 20 10h-.509c-.036-2.48-.22-3.885-1.163-4.828C17.157 4 15.271 4 11.5 4H10C6.229 4 4.343 4 3.172 5.172m3.464 3.172a.75.75 0 0 1 1.02.292l.097.034-.097-.033.001.001.002.004.004.007.01.018c.12.244.219.527.303.859.142.551.274 1.364.274 2.474s-.132 1.923-.274 2.474c-.07.275-.143.484-.202.631a3 3 0 0 1-.102.228l-.01.018-.003.007-.002.003v.002l-.001.001c-.48.878-1.796.159-1.317-.719l.005-.01.038-.087a4 4 0 0 0 .142-.447c.108-.424.226-1.111.226-2.101s-.118-1.677-.226-2.101a4 4 0 0 0-.18-.534l-.005-.01c-.194-.361-.037-.827.321-1.026" clip-rule="evenodd"/></svg>