<?xml version="1.0" encoding="UTF-8" standalone="no"?>
<svg
   width="64"
   height="64"
   viewBox="0 0 64 64"
   version="1.1"
   id="svg2"
   sodipodi:docname="custom_battery_high.svg"
   inkscape:version="1.4.3 (0d15f75, 2025-12-25)"
   xmlns:inkscape="http://www.inkscape.org/namespaces/inkscape"
   xmlns:sodipodi="http://sodipodi.sourceforge.net/DTD/sodipodi-0.dtd"
   xmlns="http://www.w3.org/2000/svg"
   xmlns:svg="http://www.w3.org/2000/svg">
  <defs
     id="defs2" />
  <sodipodi:namedview
     id="namedview2"
     pagecolor="#ffffff"
     bordercolor="#000000"
     borderopacity="0.25"
     inkscape:showpageshadow="2"
     inkscape:pageopacity="0.0"
     inkscape:pagecheckerboard="0"
     inkscape:deskcolor="#d1d1d1"
     inkscape:zoom="5.6311331"
     inkscape:cx="30.278098"
     inkscape:cy="39.246098"
     inkscape:window-width="930"
     inkscape:window-height="537"
     inkscape:window-x="900"
     inkscape:window-y="604"
     inkscape:window-maximized="0"
     inkscape:current-layer="svg2" />
  <path
     id="circle1"
     d="M 32 5 A 27 27 0 0 0 5 32 A 27 27 0 0 0 32 59 A 27 27 0 0 0 59 32 A 27 27 0 0 0 32 5 z M 24 16.951172 L 40 16.951172 L 40 20.382812 L 42.667969 20.382812 A 1.33 1.33 0 0 1 44 21.714844 L 44 45.714844 A 1.33 1.33 0 0 1 42.667969 47.048828 L 21.332031 47.048828 A 1.33 1.33 0 0 1 20 45.714844 L 20 21.714844 A 1.33 1.33 0 0 1 21.332031 20.382812 L 24 20.382812 L 24 16.951172 z "
     style="stroke:#000000;stroke-opacity:1;stroke-width:1.2;stroke-dasharray:none;fill:currentColor;fill-opacity:1" />
  <path
     fill="currentColor"
     stroke="#000"
     stroke-width="1.2"
     d="M22.667 22.667V28h18.666v-5.333zm0 8V36h18.666v-5.333zm0 8V44h18.666v-5.333z"
     id="path2"
     style="fill:currentColor;fill-opacity:1" />
</svg>
