<?xml version="1.0" encoding="UTF-8" standalone="no"?>
<svg
   width="64"
   height="64"
   viewBox="0 0 64 64"
   version="1.1"
   id="svg2"
   sodipodi:docname="custom_goal.svg"
   inkscape:version="1.4.3 (0d15f75, 2025-12-25)"
   xmlns:inkscape="http://www.inkscape.org/namespaces/inkscape"
   xmlns:sodipodi="http://sodipodi.sourceforge.net/DTD/sodipodi-0.dtd"
   xmlns="http://www.w3.org/2000/svg"
   xmlns:svg="http://www.w3.org/2000/svg">
  <defs
     id="defs2" />
  <sodipodi:namedview
     id="namedview2"
     pagecolor="#ffffff"
     bordercolor="#000000"
     borderopacity="0.25"
     inkscape:showpageshadow="2"
     inkscape:pageopacity="0.0"
     inkscape:pagecheckerboard="0"
     inkscape:deskcolor="#d1d1d1"
     inkscape:zoom="7.8196724"
     inkscape:cx="31.52306"
     inkscape:cy="50.129977"
     inkscape:window-width="930"
     inkscape:window-height="537"
     inkscape:window-x="870"
     inkscape:window-y="604"
     inkscape:window-maximized="0"
     inkscape:current-layer="svg2" />
  <path
     id="path1"
     style="stroke:#000000;stroke-opacity:1;stroke-width:1.2;stroke-dasharray:none;fill:currentColor;fill-opacity:1"
     d="M 32 5 C 17.088 5 5 17.088 5 32 C 5 46.912 17.088 59 32 59 C 46.912 59 59 46.912 59 32 C 59 17.088 46.912 5 32 5 z M 24.957031 17.912109 C 24.964766 17.912109 24.970106 17.91278 24.974609 17.914062 L 24.976562 17.916016 L 24.978516 17.916016 L 24.980469 17.917969 L 24.982422 17.917969 L 24.982422 17.919922 L 24.984375 17.919922 L 24.984375 17.921875 L 24.984375 17.923828 L 24.984375 17.925781 L 24.984375 17.927734 C 24.924048 18.078522 22.609375 19.210477 22.609375 20.847656 C 22.609375 22.223656 25.544922 22.608078 25.544922 24.955078 C 25.544922 26.247078 23.783547 27.304688 21.435547 27.304688 C 22.609547 26.726688 23.783203 26.365078 23.783203 24.955078 C 23.783203 23.782078 20.847656 23.129844 20.847656 20.964844 C 20.847656 19.790844 22.609031 17.912109 24.957031 17.912109 z M 32.001953 17.912109 C 32.009664 17.912109 32.01505 17.91278 32.019531 17.914062 L 32.021484 17.916016 L 32.023438 17.916016 L 32.025391 17.917969 L 32.027344 17.919922 L 32.029297 17.921875 L 32.029297 17.923828 L 32.029297 17.925781 L 32.029297 17.927734 C 31.968288 18.078522 29.652344 19.210477 29.652344 20.847656 C 29.652344 22.223656 32.587891 22.608078 32.587891 24.955078 C 32.587891 26.247078 30.826516 27.304688 28.478516 27.304688 C 29.652516 26.726688 30.826172 26.365078 30.826172 24.955078 C 30.826172 23.782078 27.890625 23.129844 27.890625 20.964844 C 27.890625 19.790844 29.653953 17.912109 32.001953 17.912109 z M 38.457031 17.912109 C 38.464766 17.912109 38.470106 17.91278 38.474609 17.914062 L 38.476562 17.916016 L 38.478516 17.916016 L 38.480469 17.917969 L 38.482422 17.917969 L 38.482422 17.919922 L 38.484375 17.919922 L 38.484375 17.921875 L 38.484375 17.923828 L 38.484375 17.925781 L 38.484375 17.927734 C 38.424048 18.078522 36.109375 19.210477 36.109375 20.847656 C 36.109375 22.223656 39.044922 22.608078 39.044922 24.955078 C 39.044922 26.247078 37.283547 27.304688 34.935547 27.304688 C 36.109547 26.726688 37.283203 26.365078 37.283203 24.955078 C 37.283203 23.782078 34.347656 23.129844 34.347656 20.964844 C 34.347656 19.790844 36.109031 17.912109 38.457031 17.912109 z M 20.261719 28.478516 L 41.390625 28.478516 L 41.390625 30.826172 L 42.564453 30.826172 A 4.685 4.685 0 0 1 47.261719 35.521484 L 47.261719 36.695312 A 4.685 4.685 0 0 1 42.564453 41.390625 L 41.390625 41.390625 A 4.685 4.685 0 0 1 36.695312 46.087891 L 24.957031 46.087891 A 4.685 4.685 0 0 1 20.261719 41.390625 L 20.261719 28.478516 z M 41.390625 33.173828 L 41.390625 39.042969 L 42.564453 39.042969 C 43.865453 39.042969 44.912109 37.996313 44.912109 36.695312 L 44.912109 35.521484 C 44.912109 34.220484 43.864453 33.173828 42.564453 33.173828 L 41.390625 33.173828 z " />
</svg>
