<?xml version="1.0" encoding="UTF-8" standalone="no"?>
<svg
   width="64"
   height="64"
   viewBox="0 0 64 64"
   version="1.1"
   id="svg5"
   sodipodi:docname="custom_book.svg"
   inkscape:version="1.4.3 (0d15f75, 2025-12-25)"
   xmlns:inkscape="http://www.inkscape.org/namespaces/inkscape"
   xmlns:sodipodi="http://sodipodi.sourceforge.net/DTD/sodipodi-0.dtd"
   xmlns="http://www.w3.org/2000/svg"
   xmlns:svg="http://www.w3.org/2000/svg">
  <defs
     id="defs5" />
  <sodipodi:namedview
     id="namedview5"
     pagecolor="#ffffff"
     bordercolor="#000000"
     borderopacity="0.25"
     inkscape:showpageshadow="2"
     inkscape:pageopacity="0.0"
     inkscape:pagecheckerboard="0"
     inkscape:deskcolor="#d1d1d1"
     inkscape:zoom="6.7046958"
     inkscape:cx="0.29829839"
     inkscape:cy="35.944957"
     inkscape:window-width="1800"
     inkscape:window-height="1101"
     inkscape:window-x="0"
     inkscape:window-y="40"
     inkscape:window-maximized="0"
     inkscape:current-layer="svg5" />
  <path
     id="path1"
     style="fill:currentColor;fill-opacity:1;stroke:#000000;stroke-width:1.2;stroke-dasharray:none;stroke-opacity:1"
     d="M 30.404297 5.0429688 C 23.634297 5.3929687 17.801536 8.0142038 12.908203 12.908203 C 7.6355372 18.180203 5 24.544667 5 32 C 5 39.457333 7.6355372 45.82175 12.908203 51.09375 C 16.151203 54.33375 19.805844 56.579359 23.839844 57.818359 C 25.972353 58.465987 28.176375 58.849067 30.402344 58.958984 L 30.425781 58.958984 C 30.912781 58.984984 31.376125 58.998047 31.828125 58.998047 L 31.998047 58.998047 C 32.705649 58.997356 33.413046 58.973904 34.119141 58.927734 C 35.246122 58.849114 36.367312 58.702362 37.476562 58.488281 C 37.924715 58.400171 38.370792 58.301838 38.814453 58.193359 C 43.436453 57.032359 47.519703 54.66875 51.095703 51.09375 C 53.875703 48.315083 55.921042 45.229891 57.234375 41.837891 C 58.290375 39.113224 58.873089 36.18726 58.982422 33.058594 C 58.993752 32.712594 59 32.359333 59 32 L 59 31.828125 C 58.9977 29.572838 58.722915 27.32609 58.181641 25.136719 L 58.181641 25.134766 C 58.115581 24.874697 58.045911 24.615557 57.972656 24.357422 C 57.915656 24.163422 57.858969 23.965813 57.792969 23.757812 C 57.220436 21.922287 56.438602 20.158737 55.462891 18.501953 C 54.301891 16.527953 52.84175 14.655203 51.09375 12.908203 C 46.94175 8.7542508 42.105318 6.2374685 36.583984 5.3554688 C 35.635448 5.2042115 34.679758 5.1018626 33.720703 5.0488281 C 32.616131 4.987702 31.509078 4.985746 30.404297 5.0429688 z M 16.53125 18.007812 L 23.962891 18.007812 C 28.068098 18.007812 30.875 21.955339 30.875 26.060547 L 30.875 43.267578 C 29.553372 40.791582 28.068331 41.236328 23.962891 41.236328 L 16.53125 41.236328 C 15.1621 41.238328 14.050725 40.128915 14.052734 38.759766 L 14.052734 20.484375 C 14.050734 19.115226 15.162101 18.005803 16.53125 18.007812 z M 40.037109 18.007812 L 47.46875 18.007812 C 48.837901 18.005803 49.949066 19.115226 49.947266 20.484375 L 49.947266 38.759766 C 49.949274 40.128915 48.837901 41.238328 47.46875 41.236328 L 40.037109 41.236328 C 35.931667 41.236328 34.446627 40.791582 33.125 43.267578 L 33.125 26.060547 C 33.125 21.955339 35.9319 18.007814 40.037109 18.007812 z M 14.111328 41.957031 L 14.113281 41.957031 L 14.115234 41.957031 L 14.117188 41.957031 L 14.119141 41.958984 L 14.121094 41.958984 L 14.123047 41.958984 C 14.27055 42.025306 14.717107 43.57651 15.818359 43.578125 L 23.974609 43.578125 C 28.079816 43.578125 30.865234 43.441667 30.865234 47.546875 L 30.865234 49.005859 C 29.682389 45.698012 28.078097 46.291016 23.972656 46.291016 L 16.541016 46.291016 C 15.171868 46.293016 14.060492 45.181648 14.0625 43.8125 L 14.0625 42.402344 C 14.062088 42.126477 14.074058 41.993934 14.101562 41.962891 L 14.103516 41.960938 L 14.105469 41.960938 L 14.107422 41.958984 L 14.109375 41.958984 L 14.111328 41.957031 z M 49.882812 41.957031 L 49.884766 41.957031 L 49.886719 41.957031 L 49.888672 41.957031 L 49.890625 41.958984 L 49.892578 41.958984 L 49.894531 41.960938 L 49.896484 41.960938 L 49.898438 41.962891 C 49.925969 41.993934 49.937838 42.126477 49.9375 42.402344 L 49.9375 43.8125 C 49.939508 45.181648 48.828126 46.293016 47.458984 46.291016 L 40.027344 46.291016 C 35.921904 46.291016 34.317612 45.698012 33.134766 49.005859 L 33.134766 47.546875 C 33.134766 43.441667 35.920183 43.578125 40.025391 43.578125 L 48.181641 43.578125 C 49.288515 43.576502 49.733627 42.010345 49.878906 41.958984 L 49.880859 41.958984 L 49.882812 41.957031 z " />
</svg>
