<?xml version="1.0" encoding="UTF-8" standalone="no"?>
<svg
   width="64"
   height="64"
   viewBox="0 0 16.933 16.933"
   version="1.1"
   id="svg6"
   sodipodi:docname="custom_message.svg"
   inkscape:version="1.4.3 (0d15f75, 2025-12-25)"
   xmlns:inkscape="http://www.inkscape.org/namespaces/inkscape"
   xmlns:sodipodi="http://sodipodi.sourceforge.net/DTD/sodipodi-0.dtd"
   xmlns="http://www.w3.org/2000/svg"
   xmlns:svg="http://www.w3.org/2000/svg">
  <defs
     id="defs6" />
  <sodipodi:namedview
     id="namedview6"
     pagecolor="#ffffff"
     bordercolor="#000000"
     borderopacity="0.25"
     inkscape:showpageshadow="2"
     inkscape:pageopacity="0.0"
     inkscape:pagecheckerboard="0"
     inkscape:deskcolor="#d1d1d1"
     inkscape:zoom="9.4380764"
     inkscape:cx="43.599986"
     inkscape:cy="47.043484"
     inkscape:window-width="930"
     inkscape:window-height="537"
     inkscape:window-x="900"
     inkscape:window-y="604"
     inkscape:window-maximized="0"
     inkscape:current-layer="svg6" />
  <path
     id="path1"
     style="fill:currentColor;stroke:#000000;stroke-width:0.31749375;stroke-dasharray:none;stroke-opacity:1;fill-opacity:1"
     d="M 8.4670168 1.3228906 A 7.144 7.144 0 0 0 1.3228906 8.4670168 A 7.144 7.144 0 0 0 8.4670168 15.610109 A 7.144 7.144 0 0 0 15.610109 8.4670168 A 7.144 7.144 0 0 0 8.4670168 1.3228906 z M 4.670424 5.5225516 L 12.263609 5.5225516 C 12.710257 5.5225516 13.067679 5.8799725 13.067679 6.3266211 L 13.067679 10.346452 C 13.067679 10.793101 12.710257 11.150521 12.263609 11.150521 L 8.5114576 11.150521 L 6.9038354 12.668745 C 6.725176 12.758075 6.4568431 12.579725 6.4568431 12.401066 L 6.4568431 11.150521 L 4.670424 11.150521 C 4.2237754 11.150521 3.8663546 10.793101 3.8663546 10.346452 L 3.8663546 6.3266211 C 3.8663546 5.8799725 4.2237754 5.5225516 4.670424 5.5225516 z " />
  <g
     style="fill:currentColor;stroke:#000000;stroke-width:0.35541783;stroke-opacity:1;stroke-dasharray:none;fill-opacity:1"
     id="g6"
     transform="matrix(0.8932972,0,0,0.8932972,0.89446628,0.98099429)">
    <circle
       cx="6.5100002"
       cy="8.2930002"
       r="0.60000002"
       id="circle4"
       style="stroke:#000000;stroke-opacity:1;stroke-width:0.35541783;stroke-dasharray:none;fill:currentColor;fill-opacity:1" />
    <circle
       cx="8.5100002"
       cy="8.2930002"
       r="0.60000002"
       id="circle5"
       style="stroke:#000000;stroke-opacity:1;stroke-width:0.35541783;stroke-dasharray:none;fill:currentColor;fill-opacity:1" />
    <circle
       cx="10.51"
       cy="8.2930002"
       r="0.60000002"
       id="circle6"
       style="stroke:#000000;stroke-opacity:1;stroke-width:0.35541783;stroke-dasharray:none;fill:currentColor;fill-opacity:1" />
  </g>
</svg>
