<svg xmlns="http://www.w3.org/2000/svg" width="33" height="33" viewBox="0 0 33 33"><g fill="currentColor" stroke="#000" stroke-width=".5"><path d="M32.5 12.623h-1.53v4.57h1.53ZM30.97 17.193h-1.52v3.05h1.52zM30.97 11.103h-3.05v1.52h3.05zM29.45 20.243h-1.53v1.52h1.53zM27.92 29.383H26.4v1.53h1.52zM26.4 14.143h1.52v-1.52H26.4v-1.52h-1.52v12.19h3.04v-1.53H26.4ZM26.4 30.913H2.02v1.52H26.4ZM24.88 23.293h-1.53v3.05h1.53zM21.83 27.863H6.59v-1.52H5.07v1.52H2.02v1.52H26.4v-1.52h-3.05v-1.52h-1.52zM16.515 5.236h-1.53v1.53h1.53zM14.985 6.766h-1.52v1.52h1.52zM14.985 3.716h-1.52v1.52h1.52zM14.985.666h-1.52v1.52h1.52zM13.465 2.186h-1.53v1.53h1.53zM10.415 5.236h-1.52v1.53h1.52zM8.895 6.766h-1.53v1.52h1.53zM8.895 3.716h-1.53v1.52h1.53zM8.895.666h-1.53v1.52h1.53zM7.365 2.186h-1.52v1.53h1.52zM8.11 11.103h16.77v-1.53H3.54v1.53ZM5.07 23.293H3.54v3.05h1.53zM3.54 11.103H2.02v12.19h1.52zM2.02 29.383H.5v1.53h1.52zM22.261 5.137h-1.53v1.53h1.53zm-1.53 1.53h-1.52v1.52h1.52zm0-3.05h-1.52v1.52h1.52zm0-3.05h-1.52v1.52h1.52zm-1.52 1.52h-1.53v1.53h1.53z"/></g></svg>