<svg xmlns="http://www.w3.org/2000/svg" width="33" height="33" viewBox="0 0 33 33"><g fill="currentColor" stroke="#000" stroke-width=".5"><path d="M27.93 2.015h-1.52v28.95h1.52zM23.36 29.445h-1.52v1.52h1.52zM21.84 27.925h-1.53v1.52h1.53zM20.31 26.395h-1.52v1.53h1.52zM18.79 24.875h-1.53v1.52h1.53zM17.26 23.345h-1.52v1.53h1.52zM15.74 24.875h-1.52v1.52h1.52zM14.22 26.395h-1.53v1.53h1.53zM12.69 27.925h-1.52v1.52h1.52zM11.17 29.445H9.65v1.52h1.52zM26.41.495H6.6v1.52h19.81ZM9.65 30.965H6.6v1.53h3.05zm16.829.01h-3.05v1.53h3.05zM6.6 2.015H5.07v28.95H6.6z"/></g></svg>