<svg xmlns="http://www.w3.org/2000/svg" width="33" height="33" viewBox="0 0 33 33"><g fill="currentColor" stroke="#000" stroke-width=".5"><path d="M28.447 18.26V9.467s.01.004 1.716.019l.039 8.768-1.755.014.007 1.745-1.661.004-.028 1.794h-3.434l-.01 1.69-5.13.03h-5.127v-1.754h10.255v-1.765h3.422V18.26z"/><path d="M28.447 7.703H26.74v1.765h1.706zM25.024 12.987h-3.41v3.507h3.41zM26.741 5.949H23.32v1.754h3.422zM18.191 12.987H14.77v3.507h3.422zM13.064 23.532h-1.717v1.754h1.717zM23.319 4.195H9.642V5.95h13.677ZM9.642 21.778H7.936v7.027h1.706V27.05h1.705v-1.765H9.642ZM11.347 12.987h-3.41v3.507h3.41zM9.642 5.949H6.22v1.754h3.422zM7.936 20.013H6.22v1.765h1.716ZM6.22 18.26H4.513v1.753h1.705zM6.22 7.703H4.513v1.765h1.705zM4.514 9.468H2.797v8.791h1.717z"/></g></svg>