<svg xmlns="http://www.w3.org/2000/svg" width="33" height="33" viewBox="0 0 33 33"><g fill="currentColor" stroke="#000" stroke-width=".5"><path d="M30.98 8.88h-1.53v18.29h1.53zM29.45 27.17h-3.04v1.52h3.04zM26.41 25.64h-3.05v1.53h3.05zM23.36 24.12h-4.57v1.52h4.57zM24.88 16.5h-4.57v1.52h4.57zM24.88 11.93h-4.57v1.52h4.57zM24.88 7.36h-4.57v1.52h4.57zM26.41 4.31h-7.62v1.52h7.62zM20.31 13.45h-1.52v1.53h1.52zM20.31 8.88h-1.52v1.53h1.52zM18.79 5.83h-1.53v1.53h1.53zM18.79 25.64h-4.57v1.53h4.57zM15.74 5.83h-1.52v1.53h1.52zM14.22 24.12H9.64v1.52h4.58ZM14.22 13.45h-1.53v1.53h1.53zM14.22 8.88h-1.53v1.53h1.53zM12.69 16.5H8.12v1.52h4.57zM12.69 11.93H8.12v1.52h4.57zM12.69 7.36H8.12v1.52h4.57zM14.22 4.31H6.6v1.52h7.62ZM9.64 25.64H6.6v1.53h3.04z"/><path d="M14.22 21.07v-1.52H9.64v1.52H6.6V5.83H5.07v1.53H3.55v1.52h1.52v15.24h4.57V22.6h4.58v1.52h4.57V22.6h4.57v1.52h4.57V8.88h1.52V7.36h-1.52V5.83h-1.52v15.24h-3.05v-1.52h-4.57v1.52h-1.53V7.36h-1.52v13.71ZM6.6 27.17H3.55v1.52H6.6zM3.55 8.88H2.02v18.29h1.53z"/></g></svg>