<svg xmlns="http://www.w3.org/2000/svg" width="96" height="96" viewBox="0 0 32 32"><path fill="#7d4533" stroke="#000" stroke-width=".75" d="M29 28h-7.6l-5.332-1.904L10.514 28H3a1 1 0 0 0 0 2h26a1 1 0 0 0 0-2z"/><path fill="currentColor" stroke="#000" stroke-width=".75" d="M21.44 28c3.62 0 6.56-2.94 6.56-6.56v-9.5a.94.94 0 0 0-.94-.94H4.94a.94.94 0 0 0-.94.94v9.5C4 25.06 6.94 28 10.56 28z"/><path fill="#d3d3d3" stroke="#000" stroke-width=".75" d="M10.93 9.242c-.241-1.623.025-2.12.366-2.76.197-.368.42-.784.584-1.49.32-1.33-.16-2.35-.53-2.9-.11-.16-.36-.1-.39.09-.138.995-.645 1.768-1.109 2.476C9.406 5.338 9 5.956 9 6.652c0 1.63 1.03 2.47 1.61 2.81.15.09.35-.04.32-.22zm5.5 0c-.241-1.623.025-2.12.366-2.76.197-.368.42-.784.584-1.49.32-1.33-.16-2.35-.53-2.9-.11-.16-.36-.1-.39.09-.138.995-.645 1.768-1.109 2.476-.445.68-.851 1.298-.851 1.994 0 1.63 1.03 2.47 1.61 2.81.15.09.35-.04.32-.22zm5.18.22c.15.09.35-.04.32-.22-.241-1.623.025-2.12.366-2.76.197-.368.42-.784.584-1.49.32-1.33-.16-2.35-.53-2.9-.11-.16-.36-.1-.39.09-.138.995-.645 1.768-1.109 2.476-.445.68-.851 1.298-.851 1.994 0 1.63 1.03 2.47 1.61 2.81z"/><path fill="#7d4533" stroke="#000" stroke-width=".75" d="m10.01 13-2.589 1.748a.96.96 0 0 0-.421.793v4.829c0 .355.28.63.622.63h4.756a.623.623 0 0 0 .622-.63v-4.83a.96.96 0 0 0-.421-.793z"/><path fill="#e6e6e6" stroke="#000" stroke-width=".75" d="M10 10a.75.75 0 0 0-.75.75v4.5a.75.75 0 0 0 1.5 0v-4.5A.75.75 0 0 0 10 10"/></svg>