<svg xmlns="http://www.w3.org/2000/svg" width="96" height="96" viewBox="0 0 32 32"><path fill="currentColor" stroke="#000" stroke-width=".75" d="M29.045 10.61c.45.45.45 1.18 0 1.63l-17.43 17.42c-.78.78-2.1.11-1.95-.98l.83-5.89c.1-.76-.54-1.41-1.3-1.3l-5.87.83c-1.1.16-1.77-1.17-.98-1.96l17.42-17.4c.45-.45 1.18-.45 1.63 0zm-7.37-3.12c-.78.78-.78 2.05 0 2.83s2.05.78 2.83 0 .78-2.05 0-2.83-2.05-.78-2.83 0Z"/><path fill="#d3883e" stroke="#000" stroke-width=".75" d="M23.995 6.61V2.5c0-.27.23-.5.5-.5.28 0 .5.23.5.5v3.923a.489.489 0 0 1 .628.577h3.872c.27 0 .5.22.5.5 0 .27-.23.5-.5.5h-4.11a.5.5 0 0 1-.425-.236l-.055.056a.489.489 0 0 1-.69-.69l.067-.068a.5.5 0 0 1-.287-.452Z"/></svg>