<svg xmlns="http://www.w3.org/2000/svg" width="160.229" height="144.754" viewBox="0 0 160.229 144.754"><path fill="currentColor" stroke="#000" stroke-width="4" d="M76.807 2c-15.384.337-31.956 4.81-46.662 12.592C15.68 22.248 7.344 34.3 3.115 53.674c-4.566 20.924 4.879 40.951 25.913 54.945 13.733 9.136 29.902 13.48 50.887 13.67q.175.002.353.012.561.045 1.115-.043c8.833-1.7 16.027 2.167 23.649 6.261l.058.032c6.334 3.404 12.84 6.741 19.131 9.966q3.306 1.692 6.606 3.395l.26.137c.617.394 1.32.636 2.05.705q.13 0 .258-.018c.528-.069 1.088-.113 1.682-.16 2.007-.158 4.083-.323 5.306-1.518 1.495-1.46 1.445-5.097.754-6.959-2.594-6.99-5.667-13.826-8.332-19.595-1.273-2.756-.954-3.967 1.485-5.633 13.242-9.047 20.91-22.937 23.44-42.465.77-6.421.649-12.92-.358-19.308-2.337-15.706-12.354-27.244-30.623-35.276C111.678 5.195 95.814 2.075 76.825 2ZM50.924 55.828a7.3 7.3 0 0 1 4.78 2.068 7.26 7.26 0 0 1 2.172 4.723 6.48 6.48 0 0 1-1.832 4.768A7.7 7.7 0 0 1 53.54 69.1a7.7 7.7 0 0 1-2.977.607h-.09a7.3 7.3 0 0 1-5.199-1.992 6.09 6.09 0 0 1-1.812-4.377 7.6 7.6 0 0 1 2.353-5.342 7.224 7.224 0 0 1 5.11-2.168zm30.287 1.123h.022c1.666.131 3.216.9 4.328 2.145 1.64 1.64 2.652 3.792 2.637 5.611a6.92 6.92 0 0 1-2.102 4.828 6.72 6.72 0 0 1-4.705 1.975h-.064a6.88 6.88 0 0 1-4.867-2.082 7.01 7.01 0 0 1-2.012-5.047c.049-3.73 3.399-7.41 6.763-7.43zm27.975.098a9.42 9.42 0 0 1 6.217 3.082 6.27 6.27 0 0 1 1.93 4.353 6.86 6.86 0 0 1-2.108 4.38 6.9 6.9 0 0 1-4.484 1.892h-.043a7.06 7.06 0 0 1-4.897-2.192 7.02 7.02 0 0 1-1.931-4.994 7.2 7.2 0 0 1 2.05-5.197 4.46 4.46 0 0 1 3.266-1.324z"/></svg>