<svg xmlns="http://www.w3.org/2000/svg" width="137.213" height="172.936" viewBox="0 0 137.213 172.936"><path fill="currentColor" stroke="#000" stroke-width="4" d="M92.678 2.003c-1.287-.025-2.927.168-4.854.214-6.194.147-12.401-.091-18.59.155-8.241.33-16.082-.663-24.31-.065-4.099.299-3.534 2.684-3.317 6.594-.136 5.464 1.157 9.59-1.312 9.605-6.04.038-15.614.66-18.022.82-9.425.624-15.565 4.287-18.05 13.118C2.57 38.314 2.85 45.319 2.676 51.36c-.53 18.215-.382 36.447-.487 54.674C2.111 119.759 2 133.487 2 147.21c0 12.195 6.708 20.37 18.668 22.82 2.416.554 4.884.86 7.363.906 24.672-.159 49.34-.58 74.01-.59 17.762-.006 29.547-15.027 30.709-27.117.587-6.109 1.09-12.237 1.28-18.369.518-16.787 1.114-33.578 1.179-50.37.048-12.269-.314-24.569-1.197-36.806-.903-12.533-7.001-19.36-19.625-19.57-2.262-.037-17.46.581-17.721-1.09-.63-4.042-.31-5.231-.818-11.38.138-2.95-1.025-3.6-3.17-3.641Zm-12.518 46.1q1.457-.039 2.902.142c.364.036.728.073 1.092.101.299.005.593.072.864.196.27.124.51.302.703.523a2.18 2.18 0 0 1 .353 1.766 26.5 26.5 0 0 1-.994 3.992c-1.513 4.52-3.074 9.11-4.582 13.549q-1.155 3.393-2.305 6.787a35 35 0 0 0-.474 1.55l-.135.464.459-.026c.616-.035 1.15-.066 1.69-.08q3.033-.075 6.068-.146 4.387-.101 8.775-.22c1.414-.037 2.829.136 3.586 1.641.777 1.545.048 2.811-.855 3.95l-1.85 2.33c-2.934 3.7-5.967 7.527-8.967 11.279q-2.783 3.496-5.556 7c-4.646 5.873-9.447 11.947-14.37 17.766-2.838 3.355-6.013 6.526-9.082 9.593a359 359 0 0 0-4.168 4.215c-.721.748-1.566 1.443-2.578 1.494a2.77 2.77 0 0 1-1.554-.421c-1.674-.978-1.365-2.516-.946-3.881q1.114-3.608 2.23-7.215c1.99-6.431 4.046-13.081 5.993-19.643.614-2.068 1.057-4.16 1.523-6.373.184-.866.37-1.756.57-2.654l-1.822-.014c-1.59-.012-3.094-.024-4.597-.025q-2.693 0-5.385.01l-2.803.007c-2.29.006-3.6-.393-4.261-1.31s-.599-2.261.199-4.361c.582-1.536 1.238-3.074 1.873-4.56.56-1.31 1.138-2.664 1.662-4.01 2.7-6.92 5.417-13.966 8.045-20.78l2.51-6.494c.13-.337.238-.693.336-1.028.968-3.292 1.426-3.653 4.902-3.859q3.84-.23 7.678-.469c4.338-.268 8.825-.545 13.24-.785z"/></svg>