<svg xmlns="http://www.w3.org/2000/svg" width="160.259" height="132.771"><path fill="currentColor" stroke="#000" stroke-width="4" d="M111.845 109.86c-13.428 15.983-31.732 21.345-52.302 20.885-9.797-.219-19.287-2.174-28.19-6.465a46.05 46.05 0 0 1-20.389-19.271C3.015 91.008.189 76.086 3.129 60.189c.529-2.855 1.357-5.208 4.351-7.113 8.918-5.672 18.82-8.228 28.945-9.774 17.534-2.679 35.236-3.504 52.904-1.541a249 249 0 0 1 26.348 4.701c6.899 1.53 7.187 2.265 8.326 8.85 2.526-.952 4.988-2.187 7.59-2.804 8.038-1.903 16.146 1.47 21.08 8.633 8.342 12.108 8.927 34.037-9.372 46.551-6.965 4.763-14.535 7.7-23.131 5.66-2.762-.654-5.31-2.197-8.325-3.492zM13.788 57.729l.159 1.066c2.653.448 5.293 1.19 7.96 1.296 18.213.722 36.426 1.602 54.65 1.826 9.692.119 19.434-.736 28.829-3.577a24 24 0 0 0 5.336-2.383 2.89 2.89 0 0 0 1.152-2.385 2.99 2.99 0 0 0-1.91-1.797c-2.821-.802-5.682-1.696-8.58-1.952-8.8-.776-17.616-1.465-26.44-1.833-17.343-.722-34.474.748-51.13 5.956-3.405 1.064-6.688 2.512-10.026 3.783zM120 95.341c11.12 1.465 20.482-10 16.743-20.845-1.541-4.469-8.573-6.507-12.077-3.428a4.03 4.03 0 0 0-1.034 2.25c-1.237 7.267-2.408 14.546-3.632 22.023zM76.213 25.614c-.139 3.938-1.082 6.988-3.582 9.144a5.47 5.47 0 0 1-4.081.964c-1.898-.354-2.02-2.356-1.505-3.75 1.809-4.899.83-9.465-.483-14.325-1.291-4.775.314-9.48 2.958-13.69.984-1.565 2.384-2.411 4.135-1.53 1.679.845 1.706 2.511 1.02 3.997-2.253 4.9-2.057 9.63.342 14.452.802 1.607.915 3.557 1.196 4.738zM35.402 35.93c.057-.462.192-.912.402-1.328 2.288-3.374 1.333-6.564-.27-9.875-3.256-6.729-2.277-12.888 2.75-18.391.583-.64 1.21-1.516 1.949-1.676 1.265-.273 2.953-.556 3.887.052 1.417.918.687 2.384-.175 3.705A52 52 0 0 0 40.65 14.4c-1.284 2.671-.576 5.262.393 7.91a38.7 38.7 0 0 1 2.372 8.42c.437 3.556-1.623 6.741-4.28 7.78-2.261.882-3.829-.097-3.733-2.58zM85.93 23.484c-.642-2.405-1.145-4.746-1.894-7.004-1.516-4.566-.225-8.598 2.165-12.438 1.015-1.63 2.533-2.657 4.417-1.699 1.983 1.008 1.301 2.779.59 4.29a10.22 10.22 0 0 0 .286 9.697c2.637 5.044 2.775 10.163-1.217 14.619-1.293 1.444-3.296 2.437-5.163 3.12-1.477.54-2.57-.263-1.932-2.173.93-2.77 1.817-5.554 2.748-8.412zM58.302 4.87a29 29 0 0 1-.979 2.724c-1.765 3.652-1.354 7.133.568 10.608 1.872 3.385 3.243 7.039 2.647 10.923a14.7 14.7 0 0 1-2.662 6.074c-.578.802-2.65 1.154-3.703.772-.734-.263-1.436-2.25-1.212-3.255 1.126-5.042.16-9.571-2.013-14.205-2.441-5.207-1.255-10.268 2.46-14.574.677-.787 2.224-1.108 3.358-1.086.538.01 1.05 1.339 1.536 2.018z"/></svg>