<svg xmlns="http://www.w3.org/2000/svg" width="137.213" height="172.936" viewBox="0 0 137.213 172.936"><path fill="currentColor" stroke="#000" stroke-width="4" d="M92.678 2.003c-1.287-.025-2.927.168-4.854.214-6.194.147-12.401-.091-18.59.155-8.241.33-16.082-.663-24.31-.065-4.099.299-3.534 2.684-3.317 6.594-.136 5.464 1.157 9.59-1.312 9.605-6.04.038-15.614.66-18.022.82-9.425.624-15.565 4.287-18.05 13.118C2.57 38.314 2.85 45.319 2.676 51.36c-.53 18.215-.382 36.447-.487 54.674C2.111 119.759 2 133.487 2 147.21c0 12.195 6.708 20.37 18.668 22.82 2.416.554 4.884.86 7.363.906 24.672-.159 49.34-.58 74.01-.59 17.762-.006 29.547-15.027 30.709-27.117.587-6.109 1.09-12.237 1.28-18.369.518-16.787 1.114-33.578 1.179-50.37.048-12.269-.314-24.569-1.197-36.806-.903-12.533-7.001-19.36-19.625-19.57-2.262-.037-17.46.581-17.721-1.09-.63-4.042-.31-5.231-.818-11.38.138-2.95-1.025-3.6-3.17-3.641Zm10.795 112.252c2.177.446 5.097 1.578 5.466 4.128.734 5.056.994 10.142.149 15.213-.706 4.235-2.727 6.373-6.594 6.606-4.945.298-9.899.356-14.851.428-13.609.196-27.22.392-40.829.482-3.515.023-7.033-.321-10.548-.541a13.5 13.5 0 0 1-2.473-.436c-3.05-.774-4.357-2.307-4.383-5.845-.036-4.889.186-9.782.324-14.67.046-1.607 3.113-3.116 4.448-3.69z"/></svg>