<svg xmlns="http://www.w3.org/2000/svg" width="173.708" height="163.379" viewBox="0 0 173.708 163.379"><g fill="currentColor" stroke="#000" stroke-width="4"><path d="M126.95 6.824c8.47-1.532 13.843 1.511 13.949 6.067.167 7.21.711 25.358.665 31.711-.177 24.575.012 41.327.063 61.968.528 13.661.58 27.34.614 41.01.034 26.504-1.84 29.176-12.508 29.426C89.69 173.57 82.8 202.931 29.216 208.253v.488c57.105-5.088 66.878-27.512 109.137-24.05 11.195-.25 13.164-2.926 13.128-29.483-.036-13.697-.093-27.404-.648-41.093-.18-8.084-.379-16.167-.536-24.252.824-22.747-.532-45.43-1.282-68.154-.156-15.195 2.297-20.246-22.066-14.885Z" transform="matrix(.69628 0 0 .753 66.793 4.467)"/><path d="M28.444 40.77c28.022-7.336 26.472-14.569 42.63-25.242C99.925-3.527 125.165-8.11 125.35-.073c.104 4.515.868 60.277 1.08 71.215.15 8.069.338 16.137.51 24.205.528 13.661.582 27.34.616 41.01.034 26.505-1.84 29.176-12.508 29.426-40.27-3.456-31.354 37.617-85.769 42.695M-91.461 18.677c-2.42 14.57-1.36 32.05-1.417 35.6-.184 11.9.374 23.8.133 35.7-.157 8.084-.355 16.169-.535 24.252-.555 13.689-.612 27.395-.647 41.092-.036 26.557 1.931 29.234 13.127 29.484 42.259-3.463 52.627 18.96 109.732 24.049.32-25.873-1.46-65.591-1.178-91.49.239-20.55.008-45.13.472-78.049C-28.606 37.375-84.38-13.71-91.46 18.677Z" transform="matrix(.69628 0 0 .753 66.793 4.467)"/></g></svg>