<svg xmlns="http://www.w3.org/2000/svg" width="137.213" height="172.936" viewBox="0 0 137.213 172.936"><path fill="currentColor" stroke="#000" stroke-width="4" d="M90.957-2.72c-1.287-.025-2.927.168-4.854.215-6.194.146-12.401-.092-18.59.154-8.241.331-16.082-.663-24.31-.065-4.099.299-3.534 2.685-3.317 6.594-.136 5.464 1.157 9.59-1.312 9.606-6.04.037-15.614.66-18.022.82-9.425.623-15.565 4.286-18.05 13.117C.85 33.591 1.13 40.596.955 46.637.425 64.852.573 83.085.468 101.311.39 115.036.28 128.764.28 142.487c0 12.195 6.709 20.371 18.668 22.82 2.416.554 4.884.86 7.363.906 24.672-.159 49.34-.58 74.01-.59 17.762-.005 29.547-15.027 30.709-27.117.587-6.109 1.09-12.237 1.28-18.369.518-16.786 1.114-33.578 1.179-50.369.048-12.27-.314-24.57-1.197-36.807-.903-12.533-7.001-19.36-19.625-19.57-2.262-.037-17.46.581-17.721-1.09-.63-4.042-.31-5.23-.818-11.38.138-2.95-1.025-3.6-3.17-3.641ZM70.93 40.026c7.992-.227 15.996-.068 23.993.04 2.207.058 4.407.329 6.574.811 2.99.631 4.217 2.156 4.625 5.51.567 4.667.801 9.359.054 14.03-.718 4.496-1.24 3.783-40.304 3.947-37.511-.932-39.356.478-39.377-2.362-.04-5.154.161-10.315.303-15.47.039-1.445.662-2.667 1.855-3.205 1.58-.714 3.23-1.611 4.879-1.698 12.461-.65 24.928-1.248 37.398-1.603zm11.096 34.66c19.18-.35 24.275-.897 24.717 4.684.334 3.866.386 7.757.154 11.632-.337 4.996-2.433 7.138-6.838 7.68l-68.584 1.52c-2.855-.667-4.219-2.235-4.299-5.5-.12-4.954-.02-9.917.024-14.875.007-.802 1.087-4.805 15.963-4.813 6.677-.003 17.3-.205 38.863-.328zm19.725 34.846c2.177.446 5.097 1.579 5.466 4.129.734 5.056.994 10.141.149 15.213-.706 4.235-2.727 6.372-6.594 6.605-4.945.298-9.899.356-14.851.428-13.609.196-27.22.392-40.829.482-3.515.024-7.033-.321-10.548-.54a13.5 13.5 0 0 1-2.473-.436c-3.05-.775-4.357-2.308-4.383-5.846-.036-4.889.186-9.782.324-14.67.046-1.607 3.113-3.116 4.448-3.69z" style="fill:currentColor;fill-opacity:1;stroke:#000;stroke-width:4;stroke-dasharray:none;stroke-opacity:1" transform="translate(1.721 4.723)"/></svg>