<svg xmlns="http://www.w3.org/2000/svg" width="120.457" height="158.207" viewBox="0 0 120.457 158.207"><path fill="currentColor" stroke="#000" stroke-width="4" d="M57.195 109.232a24.4 24.4 0 0 1-2.27 3.092 11069 11069 0 0 1-37.594 36.879 46.6 46.6 0 0 1-6.944 5.69c-4.228 2.755-7.565 1.092-8.27-3.93a28.5 28.5 0 0 1-.083-3.99c.047-31.295.014-62.592.196-93.887.07-12.31.555-24.621 1.008-36.926.204-2.652.656-5.279 1.352-7.847.737-3.206 1.625-4.068 5.005-4.339 6.87-.551 13.753-1.185 20.637-1.277C55.368 2.36 80.506 2.252 105.644 2a26.4 26.4 0 0 1 9.702 1.956 4.122 4.122 0 0 1 2.795 3.446c.238 1.532.342 3.082.31 4.632-1.66 43.152-2.474 86.31-1.262 129.492a64.7 64.7 0 0 1-.86 10.172c-.332 2.52-2.73 4.004-5.493 3.632a11.48 11.48 0 0 1-7.154-3.92c-13.862-15.464-30.798-27.527-46.487-42.178z"/></svg>